# xmcd
#
# Track frame offsets:
#	150
#	17250
#	42280
#	55495
#	82755
#	99922
#	115860
#	127780
#	145497
#	154550
#	184662
#	195985
#
# Disc length: 2819
#
# Revision: 2
# Processed by: cddbd v1.5.1PL0 Copyright (c) Steve Scherf et al.
# Submitted via: CedeCatalogueitor 2.5 http://usuarios.lycos.es/kakasboy
# Normalized: r1:DSETVAR1
#
DISCID=870b010c
DTITLE=Various Artist - Blues "12 Grandes Exitos"
DYEAR=1996
DGENRE=
TTITLE0=John Lee Hooker - Blues Bofore Sunrise
TTITLE1=Jimmy Whiterspoon - No Rolling Blues
TTITLE2=Jimmy Rushing - The Way I Feel
TTITLE3=Lightnin Hopkins - Blowin The Fuse
TTITLE4=Jimmy Whiterspoon - St. Louis Blues
TTITLE5=John Lee Hooker - My First Wife Left Me
TTITLE6=Ray Charles - Going Down Slow
TTITLE7=Big Bill Broonzy - Hush Somebody Is Calling You
TTITLE8=Memphis Slim - How Long Blues
TTITLE9=Sonny Terry and Brownie McGhee - Everybody Blues
TTITLE10=John Lee Hooker - Boom Boom
TTITLE11=Jimmy Whiterspoon - Trouble In Mind
EXTD=
EXTT0=
EXTT1=
EXTT2=
EXTT3=
EXTT4=
EXTT5=
EXTT6=
EXTT7=
EXTT8=
EXTT9=
EXTT10=
EXTT11=
PLAYORDER=
